<svg xmlns="http://www.w3.org/2000/svg" viewBox="0 0 64 64">
    <defs>
        <style>
            .cls-1,.cls-2,.cls-3{fill:none;stroke:#fff;}.cls-1,.cls-2{stroke-miterlimit:10;}.cls-1,.cls-3{stroke-width:2px;}.cls-3{stroke-linejoin:round;}
        </style>
    </defs>
    <title>Icon</title>
    <g id="Bottom">
        <path class="cls-1"
              d="M29.61,51.93h4.75a1,1,0,0,1,1,1v3.75a2,2,0,0,1-2,2H30.61a2,2,0,0,1-2-2V52.93A1,1,0,0,1,29.61,51.93Z"/>
        <line class="cls-2" x1="28.98" y1="48.18" x2="28.98" y2="51.56"/>
        <line class="cls-2" x1="34.98" y1="48.18" x2="34.98" y2="51.56"/>
    </g>
    <g id="Balloom">
        <path class="cls-3"
              d="M50.73,24.07c0,6.52-5.34,11.73-9.81,16.55A61.52,61.52,0,0,0,35.5,47.8h-7a75.11,75.11,0,0,0-5.42-7.18c-4.5-5-9.82-10.5-9.82-16.55a18.75,18.75,0,1,1,37.5,0Z"/>
        <path class="cls-3"
              d="M50.73,24.07C50.23,31.43,44.5,36.93,38,36.93c-3.62,0-6.12,2.5-6,5.38.07,1.5,0,5.49,0,5.49H28.47a75.11,75.11,0,0,0-5.42-7.18c-4.5-5-9.82-10.5-9.82-16.55A18.75,18.75,0,0,1,32,5.32C42.34,5.32,51.43,13.74,50.73,24.07Z"/>
        <path class="cls-3"
              d="M43.55,17.33c0,7.76-6.88,11.57-11.57,11.57-5,0-8.2,4.4-8.2,9.67,0,3.25,4.69,9.23,4.69,9.23a75.11,75.11,0,0,0-5.42-7.18c-4.5-5-9.82-10.5-9.82-16.55A18.75,18.75,0,0,1,32,5.32C38.57,5.32,43.55,11.47,43.55,17.33Z"/>
        <path class="cls-3"
              d="M33.89,12.35c0,4.1-3.81,6.15-8.5,6.15-6,0-10.64,6.12-9.52,11.72.58,2.93,7.18,10.4,7.18,10.4s-9.82-9.31-9.82-16.55C13.23,13.3,21.87,7.51,26,6.78S33.89,8.66,33.89,12.35Z"/>
    </g>
</svg>