<?xml version="1.0" encoding="utf-8"?>
<!-- Generator: Adobe Illustrator 22.0.1, SVG Export Plug-In . SVG Version: 6.00 Build 0)  -->
<svg version="1.1" xmlns="http://www.w3.org/2000/svg" xmlns:xlink="http://www.w3.org/1999/xlink" x="0px" y="0px"
	 viewBox="0 0 512 512">
<style type="text/css">
	.st1{display:inline;}
	.st2{fill:#FFD155;stroke:#4D4D4D;stroke-width:6;stroke-miterlimit:10;}
	.st3{fill:none;stroke:#4D4D4D;stroke-width:4;stroke-miterlimit:10;}
	.st4{fill:#FFDCAA;stroke:#4D4D4D;stroke-width:6;stroke-linejoin:round;stroke-miterlimit:10;}
	.st5{fill:#FFA20A;stroke:#4D4D4D;stroke-width:6;stroke-linejoin:round;stroke-miterlimit:10;}
	.st6{fill:#FF8B15;stroke:#4D4D4D;stroke-width:6;stroke-linejoin:round;stroke-miterlimit:10;}
	.st7{fill:#FF7335;stroke:#4D4D4D;stroke-width:6;stroke-linejoin:round;stroke-miterlimit:10;}
</style>
<g id="Icon">
	<g id="Bottom">
		<path class="st2" d="M281,464h-50c-1.1,0-2-0.9-2-2v-51c0-0.6,0.4-1,1-1h52c0.6,0,1,0.4,1,1v51C283,463.1,282.1,464,281,464z"/>
		<line class="st3" x1="232" y1="380" x2="232" y2="407"/>
		<line class="st3" x1="280" y1="380" x2="280" y2="407"/>
	</g>
	<g id="Balloom">
		<path class="st4" d="M406,187.1c0,52.2-42.7,93.9-78.5,132.4c-21,22.6-43.4,57.4-43.4,57.4h-56.3c0,0-23.2-35-43.4-57.4
			c-35.9-39.9-78.5-84-78.5-132.4c0-82.8,67.2-150,150-150S406,104.2,406,187.1z"/>
		<path class="st5" d="M406,187.1C406,244,359,290,309,291c-27,0.5-55,21-55,46c0,30.9,2,39.9,2,39.9h-28.1c0,0-23.2-35-43.4-57.4
			c-35.9-39.9-78.5-84-78.5-132.4c0-82.8,67.2-150,150-150S406,104.2,406,187.1z"/>
		<path class="st6" d="M348.6,133.2c0,62.1-55.1,92.6-92.6,92.6c-39.8,0-65.6,35.2-65.6,77.3c0,26,37.5,73.8,37.5,73.8
			s-23.2-35-43.4-57.4c-35.9-39.9-78.5-84-78.5-132.4c0-82.8,67.2-150,150-150C308.7,37.1,348.6,86.3,348.6,133.2z"/>
		<path class="st7" d="M271.2,93.3c0,32.8-30.5,49.2-68,49.2c-48,0-85.1,48.9-76.2,93.8c4.7,23.4,57.4,83.2,57.4,83.2
			s-78.5-84-78.5-132.4c0-82.8,69.1-132.4,102-138.3C241.9,42.7,271.2,63.8,271.2,93.3z"/>
	</g>
</g>
</svg>
