<svg xmlns="http://www.w3.org/2000/svg" viewBox="0 0 512 512">
    <defs>
        <style>
            .cls-1,.cls-2,.cls-3{fill:none;stroke:#fff;}.cls-1,.cls-2{stroke-miterlimit:10;}.cls-1,.cls-3{stroke-width:6px;}.cls-2{stroke-width:4px;}.cls-3{stroke-linejoin:round;}
        </style>
    </defs>
    <title>Icon</title>
    <g id="Bottom">
        <path class="cls-1"
              d="M229.85,415.46h52a1,1,0,0,1,1,1v51a2,2,0,0,1-2,2h-50a2,2,0,0,1-2-2v-51A1,1,0,0,1,229.85,415.46Z"/>
        <line class="cls-2" x1="231.85" y1="385.46" x2="231.85" y2="412.46"/>
        <line class="cls-2" x1="279.85" y1="385.46" x2="279.85" y2="412.46"/>
    </g>
    <g id="Balloom">
        <path class="cls-3"
              d="M405.85,192.54c0,52.2-42.72,93.85-78.52,132.42-21,22.64-43.36,57.42-43.36,57.42H227.72s-23.17-35-43.36-57.42c-35.94-39.94-78.51-84-78.51-132.42a150,150,0,0,1,300,0Z"/>
        <path class="cls-3"
              d="M405.85,192.54c-4,58.92-49.85,102.92-102,102.92-29,0-49,20-48,43,.52,12,0,43.92,0,43.92H227.72s-23.17-35-43.36-57.42c-35.94-39.94-78.51-84-78.51-132.42a150,150,0,0,1,150-150C338.69,42.54,411.46,109.89,405.85,192.54Z"/>
        <path class="cls-3"
              d="M348.43,138.63c0,62.11-55.08,92.58-92.58,92.58-39.85,0-65.63,35.16-65.63,77.34,0,26,37.5,73.83,37.5,73.83s-23.17-35-43.36-57.42c-35.94-39.94-78.51-84-78.51-132.42a150,150,0,0,1,150-150C308.58,42.54,348.43,91.76,348.43,138.63Z"/>
        <path class="cls-3"
              d="M271.08,98.79c0,32.81-30.47,49.22-68,49.22-48,0-85.13,48.92-76.17,93.75,4.69,23.44,57.42,83.2,57.42,83.2s-78.51-74.5-78.51-132.42c0-86.13,69.14-132.42,102-138.28C241.75,48.2,271.08,69.28,271.08,98.79Z"/>
    </g>
</svg>