<?xml version="1.0" encoding="utf-8"?>
<!-- Generator: Adobe Illustrator 22.0.1, SVG Export Plug-In . SVG Version: 6.00 Build 0)  -->
<svg version="1.1" xmlns="http://www.w3.org/2000/svg" xmlns:xlink="http://www.w3.org/1999/xlink" x="0px" y="0px"
	 viewBox="0 0 64 64">
<style type="text/css">
	.st1{display:inline;}
	.st2{fill:none;stroke:#FFFFFF;stroke-width:2;stroke-miterlimit:10;}
	.st3{fill:none;stroke:#FFFFFF;stroke-miterlimit:10;}
	.st4{fill:none;stroke:#FFFFFF;stroke-width:2;stroke-linejoin:round;stroke-miterlimit:10;}
</style>
<g id="Icon">
	<g id="Bottom_1_">
		<path class="st2" d="M34,56h-4.1c-0.5,0-1-0.5-1-1v-5.1H35V55C35,55.5,34.6,56,34,56z"/>
		<line class="st3" x1="29.3" y1="46.6" x2="29.3" y2="49.6"/>
		<line class="st3" x1="34.7" y1="46.6" x2="34.7" y2="49.6"/>
	</g>
	<g id="Balloom_1_">
		<path class="st4" d="M48.8,24.9c0,5.9-4.8,10.6-8.8,14.9c-2.4,2.5-4.9,6.5-4.9,6.5h-6.3c0,0-2.6-3.9-4.9-6.5
			c-4-4.5-8.8-9.4-8.8-14.9C15.1,15.6,22.7,8,32,8S48.8,15.6,48.8,24.9z"/>
		<path class="st4" d="M48.8,24.9c-0.4,6.6-5.6,11.6-11.5,11.6c-3.3,0-5.5,2.2-5.4,4.8c0.1,1.3,0,4.9,0,4.9h-3.2
			c0,0-2.6-3.9-4.9-6.5c-4-4.5-8.8-9.4-8.8-14.9C15.1,15.6,22.7,8,32,8S49.5,15.6,48.8,24.9z"/>
		<path class="st4" d="M42.4,18.8c0,7-6.2,10.4-10.4,10.4c-4.5,0-7.4,4-7.4,8.7c0,2.9,4.2,8.3,4.2,8.3s-2.6-3.9-4.9-6.5
			c-4-4.5-8.8-9.4-8.8-14.9C15.1,15.6,22.7,8,32,8C37.9,8,42.4,13.5,42.4,18.8z"/>
		<path class="st4" d="M33.7,14.3c0,3.7-3.4,5.5-7.6,5.5c-5.4,0-9.6,5.5-8.6,10.5c0.5,2.6,6.5,9.4,6.5,9.4s-8.8-8.4-8.8-14.9
			c0-9.7,7.8-14.9,11.5-15.5C30.4,8.6,33.7,11,33.7,14.3z"/>
	</g>
</g>
</svg>
